<svg xmlns="http://www.w3.org/2000/svg" width="180" height="175.503" viewBox="0 0 180 175.503">
  <path id="Icon_awesome-github" data-name="Icon awesome-github" d="M60.206,141.877c0,.726-.835,1.306-1.887,1.306-1.2.109-2.032-.472-2.032-1.306,0-.726.835-1.306,1.887-1.306C59.262,140.462,60.206,141.042,60.206,141.877Zm-11.286-1.633c-.254.726.472,1.56,1.56,1.778a1.7,1.7,0,0,0,2.25-.726c.218-.726-.472-1.56-1.56-1.887A1.863,1.863,0,0,0,48.919,140.244Zm16.04-.617c-1.052.254-1.778.944-1.669,1.778.109.726,1.052,1.2,2.141.944,1.052-.254,1.778-.944,1.669-1.669C66.992,139.99,66.012,139.518,64.96,139.627ZM88.839.562C38.5.562,0,38.776,0,89.111c0,40.246,25.331,74.685,61.512,86.806,4.645.835,6.278-2.032,6.278-4.391,0-2.25-.109-14.661-.109-22.282,0,0-25.4,5.444-30.738-10.815,0,0-4.137-10.56-10.089-13.282,0,0-8.31-5.7.581-5.589a19.156,19.156,0,0,1,14.008,9.363c7.948,14.008,21.266,9.98,26.456,7.585.835-5.806,3.194-9.835,5.806-12.23-20.286-2.25-40.754-5.19-40.754-40.1,0-9.98,2.758-14.988,8.565-21.375-.944-2.359-4.028-12.085.944-24.641,7.585-2.359,25.04,9.8,25.04,9.8a85.732,85.732,0,0,1,45.581,0s17.456-12.194,25.04-9.8c4.972,12.593,1.887,22.282.944,24.641,5.806,6.423,9.363,11.431,9.363,21.375,0,35.02-21.375,37.815-41.661,40.1,3.339,2.867,6.169,8.31,6.169,16.839,0,12.23-.109,27.363-.109,30.339,0,2.359,1.669,5.226,6.278,4.391C155.4,163.8,180,129.357,180,89.111,180,38.776,139.173.562,88.839.562ZM35.274,125.728c-.472.363-.363,1.2.254,1.887.581.581,1.415.835,1.887.363.472-.363.363-1.2-.254-1.887C36.581,125.51,35.746,125.256,35.274,125.728Zm-3.919-2.94c-.254.472.109,1.052.835,1.415a1.08,1.08,0,0,0,1.56-.254c.254-.472-.109-1.052-.835-1.415C32.19,122.317,31.609,122.425,31.355,122.788Zm11.758,12.919c-.581.472-.363,1.56.472,2.25.835.835,1.887.944,2.359.363.472-.472.254-1.56-.472-2.25C44.673,135.236,43.585,135.127,43.113,135.708Zm-4.137-5.335c-.581.363-.581,1.306,0,2.141s1.56,1.2,2.032.835a1.655,1.655,0,0,0,0-2.25C40.5,130.264,39.556,129.9,38.976,130.373Z" transform="translate(0 -0.563)"/>
</svg>
